{
	"asset":{
		"generator":"Khronos glTF Blender I/O v3.5.30",
		"version":"2.0"
	},
	"scene":0,
	"scenes":[
		{
			"name":"Scene",
			"nodes":[
				0
			]
		}
	],
	"nodes":[
		{
			"mesh":0,
			"name":"Capsule"
		}
	],
	"meshes":[
		{
			"name":"Sphere",
			"primitives":[
				{
					"attributes":{
						"POSITION":0,
						"TEXCOORD_0":1,
						"NORMAL":2
					},
					"indices":3
				}
			]
		}
	],
	"accessors":[
		{
			"bufferView":0,
			"componentType":5126,
			"count":2112,
			"max":[
				0.49999985098838806,
				1,
				0.49999967217445374
			],
			"min":[
				-0.4999995231628418,
				-1,
				-0.5
			],
			"type":"VEC3"
		},
		{
			"bufferView":1,
			"componentType":5126,
			"count":2112,
			"type":"VEC2"
		},
		{
			"bufferView":2,
			"componentType":5126,
			"count":2112,
			"type":"VEC3"
		},
		{
			"bufferView":3,
			"componentType":5123,
			"count":3072,
			"type":"SCALAR"
		}
	],
	"bufferViews":[
		{
			"buffer":0,
			"byteLength":25344,
			"byteOffset":0,
			"target":34962
		},
		{
			"buffer":0,
			"byteLength":16896,
			"byteOffset":25344,
			"target":34962
		},
		{
			"buffer":0,
			"byteLength":25344,
			"byteOffset":42240,
			"target":34962
		},
		{
			"buffer":0,
			"byteLength":6144,
			"byteOffset":67584,
			"target":34963
		}
	],
	"buffers":[
		{
			"byteLength":73728,
			"uri":"data:application/octet-stream;base64,"
		}
	]
}
